<mxfile host="65bd71144e">
    <diagram id="4JdWSqs2mJfbd6jHVE0C" name="Page-1">
        <mxGraphModel dx="2911" dy="1824" grid="1" gridSize="10" guides="1" tooltips="1" connect="1" arrows="1" fold="1" page="0" pageScale="1" pageWidth="827" pageHeight="1169" math="1" shadow="0">
            <root>
                <mxCell id="0"/>
                <mxCell id="1" parent="0"/>
                <mxCell id="3" value="Problema do Fluxo Máximo" style="text;html=1;align=center;verticalAlign=middle;whiteSpace=wrap;rounded=0;fontFamily=Josefin Sans;fontSource=https%3A%2F%2Ffonts.googleapis.com%2Fcss%3Ffamily%3DJosefin%2BSans;fontSize=32;fontStyle=1;sketch=1;" parent="1" vertex="1">
                    <mxGeometry x="80" y="-360" width="440" height="40" as="geometry"/>
                </mxCell>
                <mxCell id="4" value="Qual o maior valor de fluxo que pode ser transportado em uma dade rede?" style="text;html=1;strokeColor=none;fillColor=none;align=center;verticalAlign=middle;whiteSpace=wrap;rounded=0;sketch=1;fontFamily=Josefin Sans;fontSource=https%3A%2F%2Ffonts.googleapis.com%2Fcss%3Ffamily%3DJosefin%2BSans;fontSize=15;" vertex="1" parent="1">
                    <mxGeometry y="-320" width="600" height="40" as="geometry"/>
                </mxCell>
                <mxCell id="41" value="1" style="whiteSpace=wrap;html=1;aspect=fixed;sketch=1;fontFamily=Helvetica;fontSize=25;rounded=1;" vertex="1" parent="1">
                    <mxGeometry x="-80" y="-240" width="40" height="40" as="geometry"/>
                </mxCell>
                <mxCell id="43" value="Uma rede de transporte de materiais pode ser representada através de um grafo orientado \(G = (V, E)\) que satisfaz algumas propriedades.&amp;nbsp;" style="text;html=1;strokeColor=none;fillColor=none;align=center;verticalAlign=middle;whiteSpace=wrap;rounded=0;sketch=1;fontFamily=Josefin Sans;fontSource=https%3A%2F%2Ffonts.googleapis.com%2Fcss%3Ffamily%3DJosefin%2BSans;fontSize=15;" vertex="1" parent="1">
                    <mxGeometry x="-200" y="-180" width="280" height="90" as="geometry"/>
                </mxCell>
                <mxCell id="50" value="Primeiro, esse grafo precisa ter 2 vértices particulares:&lt;br&gt;&lt;ul&gt;&lt;li style=&quot;text-align: left&quot;&gt;Um vértice &lt;i&gt;fonte&lt;/i&gt;&amp;nbsp;(&lt;i&gt;source, \(s\)&lt;/i&gt;), que só possui arestas saindo.&lt;/li&gt;&lt;li style=&quot;text-align: left&quot;&gt;Um vértice &lt;i&gt;sorvedouro&lt;/i&gt;&amp;nbsp;(&lt;i&gt;sink, \(t\)&lt;/i&gt;), que só possui arestas chegando.&lt;/li&gt;&lt;/ul&gt;" style="text;html=1;strokeColor=none;fillColor=none;align=center;verticalAlign=middle;whiteSpace=wrap;rounded=0;sketch=1;fontFamily=Josefin Sans;fontSource=https%3A%2F%2Ffonts.googleapis.com%2Fcss%3Ffamily%3DJosefin%2BSans;fontSize=15;" vertex="1" parent="1">
                    <mxGeometry x="-200" y="-80" width="280" height="120" as="geometry"/>
                </mxCell>
                <mxCell id="60" style="edgeStyle=none;html=1;exitX=1;exitY=0;exitDx=0;exitDy=0;entryX=0;entryY=0.5;entryDx=0;entryDy=0;fontFamily=Helvetica;fontSize=16;endArrow=classic;endFill=1;endSize=4;strokeWidth=1;" edge="1" parent="1" source="51" target="53">
                    <mxGeometry relative="1" as="geometry"/>
                </mxCell>
                <mxCell id="61" style="edgeStyle=none;html=1;exitX=1;exitY=1;exitDx=0;exitDy=0;entryX=0;entryY=0.5;entryDx=0;entryDy=0;fontFamily=Helvetica;fontSize=16;endArrow=classic;endFill=1;endSize=4;strokeWidth=1;" edge="1" parent="1" source="51" target="56">
                    <mxGeometry relative="1" as="geometry"/>
                </mxCell>
                <mxCell id="51" value="\(s\)" style="ellipse;whiteSpace=wrap;html=1;aspect=fixed;fontSize=16;fontFamily=Helvetica;" vertex="1" parent="1">
                    <mxGeometry x="-200" y="90" width="40" height="40" as="geometry"/>
                </mxCell>
                <mxCell id="52" value="\(t\)" style="ellipse;whiteSpace=wrap;html=1;aspect=fixed;fontSize=16;fontFamily=Helvetica;" vertex="1" parent="1">
                    <mxGeometry x="40" y="90" width="40" height="40" as="geometry"/>
                </mxCell>
                <mxCell id="73" style="edgeStyle=none;html=1;exitX=1;exitY=0.5;exitDx=0;exitDy=0;entryX=0;entryY=0.5;entryDx=0;entryDy=0;fontFamily=Helvetica;fontSize=16;endArrow=classic;endFill=1;endSize=4;strokeWidth=1;" edge="1" parent="1" source="53" target="55">
                    <mxGeometry relative="1" as="geometry"/>
                </mxCell>
                <mxCell id="53" value="" style="ellipse;whiteSpace=wrap;html=1;aspect=fixed;fontSize=16;fontFamily=Helvetica;" vertex="1" parent="1">
                    <mxGeometry x="-130" y="60" width="20" height="20" as="geometry"/>
                </mxCell>
                <mxCell id="64" style="edgeStyle=none;html=1;exitX=0;exitY=1;exitDx=0;exitDy=0;entryX=1;entryY=1;entryDx=0;entryDy=0;fontFamily=Helvetica;fontSize=16;endArrow=classic;endFill=1;endSize=4;strokeWidth=1;" edge="1" parent="1" source="54" target="53">
                    <mxGeometry relative="1" as="geometry"/>
                </mxCell>
                <mxCell id="65" style="edgeStyle=none;html=1;exitX=0;exitY=0;exitDx=0;exitDy=0;entryX=0;entryY=1;entryDx=0;entryDy=0;fontFamily=Helvetica;fontSize=16;endArrow=classic;endFill=1;endSize=4;strokeWidth=1;" edge="1" parent="1" source="54" target="55">
                    <mxGeometry relative="1" as="geometry"/>
                </mxCell>
                <mxCell id="67" style="edgeStyle=none;html=1;exitX=0.5;exitY=0;exitDx=0;exitDy=0;entryX=0;entryY=0.5;entryDx=0;entryDy=0;fontFamily=Helvetica;fontSize=16;endArrow=classic;endFill=1;endSize=4;strokeWidth=1;" edge="1" parent="1" source="54" target="57">
                    <mxGeometry relative="1" as="geometry"/>
                </mxCell>
                <mxCell id="54" value="" style="ellipse;whiteSpace=wrap;html=1;aspect=fixed;fontSize=16;fontFamily=Helvetica;direction=south;" vertex="1" parent="1">
                    <mxGeometry x="-90" y="110" width="20" height="20" as="geometry"/>
                </mxCell>
                <mxCell id="69" style="edgeStyle=none;html=1;exitX=1;exitY=0.5;exitDx=0;exitDy=0;entryX=0;entryY=0.5;entryDx=0;entryDy=0;fontFamily=Helvetica;fontSize=16;endArrow=classic;endFill=1;endSize=4;strokeWidth=1;" edge="1" parent="1" source="55" target="59">
                    <mxGeometry relative="1" as="geometry"/>
                </mxCell>
                <mxCell id="55" value="" style="ellipse;whiteSpace=wrap;html=1;aspect=fixed;fontSize=16;fontFamily=Helvetica;" vertex="1" parent="1">
                    <mxGeometry x="-60" y="70" width="20" height="20" as="geometry"/>
                </mxCell>
                <mxCell id="62" style="edgeStyle=none;html=1;exitX=1;exitY=0.5;exitDx=0;exitDy=0;entryX=0.5;entryY=1;entryDx=0;entryDy=0;fontFamily=Helvetica;fontSize=16;endArrow=classic;endFill=1;endSize=4;strokeWidth=1;" edge="1" parent="1" source="56" target="54">
                    <mxGeometry relative="1" as="geometry"/>
                </mxCell>
                <mxCell id="56" value="" style="ellipse;whiteSpace=wrap;html=1;aspect=fixed;fontSize=16;fontFamily=Helvetica;" vertex="1" parent="1">
                    <mxGeometry x="-140" y="120" width="20" height="20" as="geometry"/>
                </mxCell>
                <mxCell id="68" style="edgeStyle=none;html=1;exitX=0;exitY=0;exitDx=0;exitDy=0;entryX=1;entryY=1;entryDx=0;entryDy=0;fontFamily=Helvetica;fontSize=16;endArrow=classic;endFill=1;endSize=4;strokeWidth=1;" edge="1" parent="1" source="57" target="55">
                    <mxGeometry relative="1" as="geometry"/>
                </mxCell>
                <mxCell id="70" style="edgeStyle=none;html=1;exitX=1;exitY=0.5;exitDx=0;exitDy=0;entryX=0;entryY=0.5;entryDx=0;entryDy=0;fontFamily=Helvetica;fontSize=16;endArrow=classic;endFill=1;endSize=4;strokeWidth=1;" edge="1" parent="1" source="57" target="52">
                    <mxGeometry relative="1" as="geometry"/>
                </mxCell>
                <mxCell id="72" style="edgeStyle=none;html=1;exitX=1;exitY=0;exitDx=0;exitDy=0;entryX=0.5;entryY=1;entryDx=0;entryDy=0;fontFamily=Helvetica;fontSize=16;endArrow=classic;endFill=1;endSize=4;strokeWidth=1;" edge="1" parent="1" source="57" target="59">
                    <mxGeometry relative="1" as="geometry"/>
                </mxCell>
                <mxCell id="57" value="" style="ellipse;whiteSpace=wrap;html=1;aspect=fixed;fontSize=16;fontFamily=Helvetica;" vertex="1" parent="1">
                    <mxGeometry x="-10" y="110" width="20" height="20" as="geometry"/>
                </mxCell>
                <mxCell id="71" style="edgeStyle=none;html=1;exitX=1;exitY=1;exitDx=0;exitDy=0;entryX=0;entryY=0;entryDx=0;entryDy=0;fontFamily=Helvetica;fontSize=16;endArrow=classic;endFill=1;endSize=4;strokeWidth=1;" edge="1" parent="1" source="59" target="52">
                    <mxGeometry relative="1" as="geometry"/>
                </mxCell>
                <mxCell id="59" value="" style="ellipse;whiteSpace=wrap;html=1;aspect=fixed;fontSize=16;fontFamily=Helvetica;" vertex="1" parent="1">
                    <mxGeometry x="10" y="60" width="20" height="20" as="geometry"/>
                </mxCell>
                <mxCell id="74" value="2" style="whiteSpace=wrap;html=1;aspect=fixed;sketch=1;fontFamily=Helvetica;fontSize=25;rounded=1;" vertex="1" parent="1">
                    <mxGeometry x="280" y="-240" width="40" height="40" as="geometry"/>
                </mxCell>
                <mxCell id="75" value="Segundo, para toda aresta \((u,v) \in E\) desse grafo existe uma capacidade \(c(u, v)\) associada a ela, determinando o quanto de material que pode ser transportado através dela.&amp;nbsp;" style="text;html=1;strokeColor=none;fillColor=none;align=center;verticalAlign=middle;whiteSpace=wrap;rounded=0;sketch=1;fontFamily=Josefin Sans;fontSource=https%3A%2F%2Ffonts.googleapis.com%2Fcss%3Ffamily%3DJosefin%2BSans;fontSize=15;" vertex="1" parent="1">
                    <mxGeometry x="160" y="-180" width="280" height="90" as="geometry"/>
                </mxCell>
                <mxCell id="77" style="edgeStyle=none;html=1;exitX=1;exitY=0;exitDx=0;exitDy=0;entryX=0;entryY=0.5;entryDx=0;entryDy=0;fontFamily=Helvetica;fontSize=16;endArrow=classic;endFill=1;endSize=4;strokeWidth=1;" edge="1" parent="1" source="79" target="82">
                    <mxGeometry relative="1" as="geometry"/>
                </mxCell>
                <mxCell id="97" value="3" style="edgeLabel;html=1;align=center;verticalAlign=middle;resizable=0;points=[];fontSize=12;fontFamily=Helvetica;" vertex="1" connectable="0" parent="77">
                    <mxGeometry x="-0.4443" y="-1" relative="1" as="geometry">
                        <mxPoint x="2" y="-3" as="offset"/>
                    </mxGeometry>
                </mxCell>
                <mxCell id="78" style="edgeStyle=none;html=1;exitX=1;exitY=1;exitDx=0;exitDy=0;entryX=0;entryY=0.5;entryDx=0;entryDy=0;fontFamily=Helvetica;fontSize=16;endArrow=classic;endFill=1;endSize=4;strokeWidth=1;" edge="1" parent="1" source="79" target="90">
                    <mxGeometry relative="1" as="geometry"/>
                </mxCell>
                <mxCell id="98" value="9" style="edgeLabel;html=1;align=center;verticalAlign=middle;resizable=0;points=[];fontSize=12;fontFamily=Helvetica;" vertex="1" connectable="0" parent="78">
                    <mxGeometry x="-0.6008" relative="1" as="geometry">
                        <mxPoint x="4" y="1" as="offset"/>
                    </mxGeometry>
                </mxCell>
                <mxCell id="79" value="\(s\)" style="ellipse;whiteSpace=wrap;html=1;aspect=fixed;fontSize=16;fontFamily=Helvetica;" vertex="1" parent="1">
                    <mxGeometry x="160" y="-30" width="40" height="40" as="geometry"/>
                </mxCell>
                <mxCell id="80" value="\(t\)" style="ellipse;whiteSpace=wrap;html=1;aspect=fixed;fontSize=16;fontFamily=Helvetica;" vertex="1" parent="1">
                    <mxGeometry x="400" y="-30" width="40" height="40" as="geometry"/>
                </mxCell>
                <mxCell id="81" style="edgeStyle=none;html=1;exitX=1;exitY=0.5;exitDx=0;exitDy=0;entryX=0;entryY=0.5;entryDx=0;entryDy=0;fontFamily=Helvetica;fontSize=16;endArrow=classic;endFill=1;endSize=4;strokeWidth=1;" edge="1" parent="1" source="82" target="88">
                    <mxGeometry relative="1" as="geometry"/>
                </mxCell>
                <mxCell id="105" value="7" style="edgeLabel;html=1;align=center;verticalAlign=middle;resizable=0;points=[];fontSize=12;fontFamily=Helvetica;" vertex="1" connectable="0" parent="81">
                    <mxGeometry x="-0.3693" y="-1" relative="1" as="geometry">
                        <mxPoint x="7" y="1" as="offset"/>
                    </mxGeometry>
                </mxCell>
                <mxCell id="82" value="" style="ellipse;whiteSpace=wrap;html=1;aspect=fixed;fontSize=16;fontFamily=Helvetica;" vertex="1" parent="1">
                    <mxGeometry x="230" y="-60" width="20" height="20" as="geometry"/>
                </mxCell>
                <mxCell id="83" style="edgeStyle=none;html=1;exitX=0;exitY=1;exitDx=0;exitDy=0;entryX=1;entryY=1;entryDx=0;entryDy=0;fontFamily=Helvetica;fontSize=16;endArrow=classic;endFill=1;endSize=4;strokeWidth=1;" edge="1" parent="1" source="86" target="82">
                    <mxGeometry relative="1" as="geometry"/>
                </mxCell>
                <mxCell id="102" value="4" style="edgeLabel;html=1;align=center;verticalAlign=middle;resizable=0;points=[];fontSize=12;fontFamily=Helvetica;" vertex="1" connectable="0" parent="83">
                    <mxGeometry x="-0.5383" relative="1" as="geometry">
                        <mxPoint x="-5" y="-6" as="offset"/>
                    </mxGeometry>
                </mxCell>
                <mxCell id="84" style="edgeStyle=none;html=1;exitX=0;exitY=0;exitDx=0;exitDy=0;entryX=0;entryY=1;entryDx=0;entryDy=0;fontFamily=Helvetica;fontSize=16;endArrow=classic;endFill=1;endSize=4;strokeWidth=1;" edge="1" parent="1" source="86" target="88">
                    <mxGeometry relative="1" as="geometry"/>
                </mxCell>
                <mxCell id="104" value="2" style="edgeLabel;html=1;align=center;verticalAlign=middle;resizable=0;points=[];fontSize=12;fontFamily=Helvetica;" vertex="1" connectable="0" parent="84">
                    <mxGeometry x="-0.3861" y="1" relative="1" as="geometry">
                        <mxPoint x="2" y="-2" as="offset"/>
                    </mxGeometry>
                </mxCell>
                <mxCell id="85" style="edgeStyle=none;html=1;exitX=0.5;exitY=0;exitDx=0;exitDy=0;entryX=0;entryY=0.5;entryDx=0;entryDy=0;fontFamily=Helvetica;fontSize=16;endArrow=classic;endFill=1;endSize=4;strokeWidth=1;" edge="1" parent="1" source="86" target="94">
                    <mxGeometry relative="1" as="geometry"/>
                </mxCell>
                <mxCell id="103" value="4" style="edgeLabel;html=1;align=center;verticalAlign=middle;resizable=0;points=[];fontSize=12;fontFamily=Helvetica;" vertex="1" connectable="0" parent="85">
                    <mxGeometry x="-0.5945" relative="1" as="geometry">
                        <mxPoint x="8" as="offset"/>
                    </mxGeometry>
                </mxCell>
                <mxCell id="86" value="" style="ellipse;whiteSpace=wrap;html=1;aspect=fixed;fontSize=16;fontFamily=Helvetica;direction=south;" vertex="1" parent="1">
                    <mxGeometry x="270" y="-10" width="20" height="20" as="geometry"/>
                </mxCell>
                <mxCell id="87" style="edgeStyle=none;html=1;exitX=1;exitY=0.5;exitDx=0;exitDy=0;entryX=0;entryY=0.5;entryDx=0;entryDy=0;fontFamily=Helvetica;fontSize=16;endArrow=classic;endFill=1;endSize=4;strokeWidth=1;" edge="1" parent="1" source="88" target="96">
                    <mxGeometry relative="1" as="geometry"/>
                </mxCell>
                <mxCell id="108" value="6" style="edgeLabel;html=1;align=center;verticalAlign=middle;resizable=0;points=[];fontSize=12;fontFamily=Helvetica;" vertex="1" connectable="0" parent="87">
                    <mxGeometry x="0.3227" y="-1" relative="1" as="geometry">
                        <mxPoint x="-6" as="offset"/>
                    </mxGeometry>
                </mxCell>
                <mxCell id="88" value="" style="ellipse;whiteSpace=wrap;html=1;aspect=fixed;fontSize=16;fontFamily=Helvetica;" vertex="1" parent="1">
                    <mxGeometry x="300" y="-50" width="20" height="20" as="geometry"/>
                </mxCell>
                <mxCell id="89" style="edgeStyle=none;html=1;exitX=1;exitY=0.5;exitDx=0;exitDy=0;entryX=0.5;entryY=1;entryDx=0;entryDy=0;fontFamily=Helvetica;fontSize=16;endArrow=classic;endFill=1;endSize=4;strokeWidth=1;" edge="1" parent="1" source="90" target="86">
                    <mxGeometry relative="1" as="geometry"/>
                </mxCell>
                <mxCell id="101" value="9" style="edgeLabel;html=1;align=center;verticalAlign=middle;resizable=0;points=[];fontSize=12;fontFamily=Helvetica;" vertex="1" connectable="0" parent="89">
                    <mxGeometry x="-0.391" y="1" relative="1" as="geometry">
                        <mxPoint x="1" y="1" as="offset"/>
                    </mxGeometry>
                </mxCell>
                <mxCell id="90" value="" style="ellipse;whiteSpace=wrap;html=1;aspect=fixed;fontSize=16;fontFamily=Helvetica;" vertex="1" parent="1">
                    <mxGeometry x="220" width="20" height="20" as="geometry"/>
                </mxCell>
                <mxCell id="91" style="edgeStyle=none;html=1;exitX=0;exitY=0;exitDx=0;exitDy=0;entryX=1;entryY=1;entryDx=0;entryDy=0;fontFamily=Helvetica;fontSize=16;endArrow=classic;endFill=1;endSize=4;strokeWidth=1;" edge="1" parent="1" source="94" target="88">
                    <mxGeometry relative="1" as="geometry"/>
                </mxCell>
                <mxCell id="106" value="5" style="edgeLabel;html=1;align=center;verticalAlign=middle;resizable=0;points=[];fontSize=12;fontFamily=Helvetica;" vertex="1" connectable="0" parent="91">
                    <mxGeometry x="-0.3574" y="1" relative="1" as="geometry">
                        <mxPoint x="-3" y="-4" as="offset"/>
                    </mxGeometry>
                </mxCell>
                <mxCell id="92" style="edgeStyle=none;html=1;exitX=1;exitY=0.5;exitDx=0;exitDy=0;entryX=0;entryY=0.5;entryDx=0;entryDy=0;fontFamily=Helvetica;fontSize=16;endArrow=classic;endFill=1;endSize=4;strokeWidth=1;" edge="1" parent="1" source="94" target="80">
                    <mxGeometry relative="1" as="geometry"/>
                </mxCell>
                <mxCell id="100" value="8" style="edgeLabel;html=1;align=center;verticalAlign=middle;resizable=0;points=[];fontSize=12;fontFamily=Helvetica;" vertex="1" connectable="0" parent="92">
                    <mxGeometry x="-0.2747" relative="1" as="geometry">
                        <mxPoint x="1" as="offset"/>
                    </mxGeometry>
                </mxCell>
                <mxCell id="93" style="edgeStyle=none;html=1;exitX=1;exitY=0;exitDx=0;exitDy=0;entryX=0.5;entryY=1;entryDx=0;entryDy=0;fontFamily=Helvetica;fontSize=16;endArrow=classic;endFill=1;endSize=4;strokeWidth=1;" edge="1" parent="1" source="94" target="96">
                    <mxGeometry relative="1" as="geometry"/>
                </mxCell>
                <mxCell id="109" value="4" style="edgeLabel;html=1;align=center;verticalAlign=middle;resizable=0;points=[];fontSize=12;fontFamily=Helvetica;" vertex="1" connectable="0" parent="93">
                    <mxGeometry x="-0.2646" relative="1" as="geometry">
                        <mxPoint y="-1" as="offset"/>
                    </mxGeometry>
                </mxCell>
                <mxCell id="94" value="" style="ellipse;whiteSpace=wrap;html=1;aspect=fixed;fontSize=16;fontFamily=Helvetica;" vertex="1" parent="1">
                    <mxGeometry x="350" y="-10" width="20" height="20" as="geometry"/>
                </mxCell>
                <mxCell id="95" style="edgeStyle=none;html=1;exitX=1;exitY=1;exitDx=0;exitDy=0;entryX=0;entryY=0;entryDx=0;entryDy=0;fontFamily=Helvetica;fontSize=16;endArrow=classic;endFill=1;endSize=4;strokeWidth=1;" edge="1" parent="1" source="96" target="80">
                    <mxGeometry relative="1" as="geometry"/>
                </mxCell>
                <mxCell id="99" value="6" style="edgeLabel;html=1;align=center;verticalAlign=middle;resizable=0;points=[];fontSize=12;fontFamily=Helvetica;" vertex="1" connectable="0" parent="95">
                    <mxGeometry x="-0.5418" relative="1" as="geometry">
                        <mxPoint x="3" y="3" as="offset"/>
                    </mxGeometry>
                </mxCell>
                <mxCell id="96" value="" style="ellipse;whiteSpace=wrap;html=1;aspect=fixed;fontSize=16;fontFamily=Helvetica;" vertex="1" parent="1">
                    <mxGeometry x="370" y="-60" width="20" height="20" as="geometry"/>
                </mxCell>
                <mxCell id="110" value="3" style="whiteSpace=wrap;html=1;aspect=fixed;sketch=1;fontFamily=Helvetica;fontSize=25;rounded=1;" vertex="1" parent="1">
                    <mxGeometry x="640" y="-240" width="40" height="40" as="geometry"/>
                </mxCell>
                <mxCell id="111" value="Todas as arestas \((u,v) \in E\) fazem parte de algum caminho de \(s\) para \(t\). Não existindo arestas que não fazem parte de algum caminho." style="text;html=1;strokeColor=none;fillColor=none;align=center;verticalAlign=middle;whiteSpace=wrap;rounded=0;sketch=1;fontFamily=Josefin Sans;fontSource=https%3A%2F%2Ffonts.googleapis.com%2Fcss%3Ffamily%3DJosefin%2BSans;fontSize=15;" vertex="1" parent="1">
                    <mxGeometry x="520" y="-180" width="280" height="80" as="geometry"/>
                </mxCell>
                <mxCell id="112" style="edgeStyle=none;html=1;exitX=1;exitY=0;exitDx=0;exitDy=0;entryX=0;entryY=0.5;entryDx=0;entryDy=0;fontFamily=Helvetica;fontSize=16;endArrow=classic;endFill=1;endSize=4;strokeWidth=1;" edge="1" parent="1" source="116" target="120">
                    <mxGeometry relative="1" as="geometry"/>
                </mxCell>
                <mxCell id="113" value="3" style="edgeLabel;html=1;align=center;verticalAlign=middle;resizable=0;points=[];fontSize=12;fontFamily=Helvetica;" vertex="1" connectable="0" parent="112">
                    <mxGeometry x="-0.4443" y="-1" relative="1" as="geometry">
                        <mxPoint x="2" y="-3" as="offset"/>
                    </mxGeometry>
                </mxCell>
                <mxCell id="114" style="edgeStyle=none;html=1;exitX=1;exitY=1;exitDx=0;exitDy=0;entryX=0;entryY=0.5;entryDx=0;entryDy=0;fontFamily=Helvetica;fontSize=16;endArrow=classic;endFill=1;endSize=4;strokeWidth=1;" edge="1" parent="1" source="116" target="133">
                    <mxGeometry relative="1" as="geometry"/>
                </mxCell>
                <mxCell id="115" value="9" style="edgeLabel;html=1;align=center;verticalAlign=middle;resizable=0;points=[];fontSize=12;fontFamily=Helvetica;" vertex="1" connectable="0" parent="114">
                    <mxGeometry x="-0.6008" relative="1" as="geometry">
                        <mxPoint x="4" y="1" as="offset"/>
                    </mxGeometry>
                </mxCell>
                <mxCell id="116" value="\(s\)" style="ellipse;whiteSpace=wrap;html=1;aspect=fixed;fontSize=16;fontFamily=Helvetica;" vertex="1" parent="1">
                    <mxGeometry x="520" y="-40" width="40" height="40" as="geometry"/>
                </mxCell>
                <mxCell id="117" value="\(t\)" style="ellipse;whiteSpace=wrap;html=1;aspect=fixed;fontSize=16;fontFamily=Helvetica;" vertex="1" parent="1">
                    <mxGeometry x="760" y="-40" width="40" height="40" as="geometry"/>
                </mxCell>
                <mxCell id="118" style="edgeStyle=none;html=1;exitX=1;exitY=0.5;exitDx=0;exitDy=0;entryX=0;entryY=0.5;entryDx=0;entryDy=0;fontFamily=Helvetica;fontSize=16;endArrow=classic;endFill=1;endSize=4;strokeWidth=1;" edge="1" parent="1" source="120" target="130">
                    <mxGeometry relative="1" as="geometry"/>
                </mxCell>
                <mxCell id="119" value="7" style="edgeLabel;html=1;align=center;verticalAlign=middle;resizable=0;points=[];fontSize=12;fontFamily=Helvetica;" vertex="1" connectable="0" parent="118">
                    <mxGeometry x="-0.3693" y="-1" relative="1" as="geometry">
                        <mxPoint x="7" y="1" as="offset"/>
                    </mxGeometry>
                </mxCell>
                <mxCell id="120" value="" style="ellipse;whiteSpace=wrap;html=1;aspect=fixed;fontSize=16;fontFamily=Helvetica;" vertex="1" parent="1">
                    <mxGeometry x="590" y="-70" width="20" height="20" as="geometry"/>
                </mxCell>
                <mxCell id="121" style="edgeStyle=none;html=1;exitX=0;exitY=1;exitDx=0;exitDy=0;entryX=1;entryY=1;entryDx=0;entryDy=0;fontFamily=Helvetica;fontSize=16;endArrow=classic;endFill=1;endSize=4;strokeWidth=1;" edge="1" parent="1" source="127" target="120">
                    <mxGeometry relative="1" as="geometry"/>
                </mxCell>
                <mxCell id="122" value="4" style="edgeLabel;html=1;align=center;verticalAlign=middle;resizable=0;points=[];fontSize=12;fontFamily=Helvetica;" vertex="1" connectable="0" parent="121">
                    <mxGeometry x="-0.5383" relative="1" as="geometry">
                        <mxPoint x="-5" y="-6" as="offset"/>
                    </mxGeometry>
                </mxCell>
                <mxCell id="123" style="edgeStyle=none;html=1;exitX=0;exitY=0;exitDx=0;exitDy=0;entryX=0;entryY=1;entryDx=0;entryDy=0;fontFamily=Helvetica;fontSize=16;endArrow=classic;endFill=1;endSize=4;strokeWidth=1;" edge="1" parent="1" source="127" target="130">
                    <mxGeometry relative="1" as="geometry"/>
                </mxCell>
                <mxCell id="124" value="2" style="edgeLabel;html=1;align=center;verticalAlign=middle;resizable=0;points=[];fontSize=12;fontFamily=Helvetica;" vertex="1" connectable="0" parent="123">
                    <mxGeometry x="-0.3861" y="1" relative="1" as="geometry">
                        <mxPoint x="2" y="-2" as="offset"/>
                    </mxGeometry>
                </mxCell>
                <mxCell id="125" style="edgeStyle=none;html=1;exitX=0.5;exitY=0;exitDx=0;exitDy=0;entryX=0;entryY=0.5;entryDx=0;entryDy=0;fontFamily=Helvetica;fontSize=16;endArrow=classic;endFill=1;endSize=4;strokeWidth=1;" edge="1" parent="1" source="127" target="140">
                    <mxGeometry relative="1" as="geometry"/>
                </mxCell>
                <mxCell id="126" value="4" style="edgeLabel;html=1;align=center;verticalAlign=middle;resizable=0;points=[];fontSize=12;fontFamily=Helvetica;" vertex="1" connectable="0" parent="125">
                    <mxGeometry x="-0.5945" relative="1" as="geometry">
                        <mxPoint x="8" as="offset"/>
                    </mxGeometry>
                </mxCell>
                <mxCell id="146" style="edgeStyle=none;html=1;exitX=1;exitY=0.5;exitDx=0;exitDy=0;entryX=0.5;entryY=0;entryDx=0;entryDy=0;fontFamily=Helvetica;fontSize=12;endArrow=classic;endFill=1;endSize=4;strokeWidth=1;" edge="1" parent="1" source="127" target="145">
                    <mxGeometry relative="1" as="geometry"/>
                </mxCell>
                <mxCell id="127" value="" style="ellipse;whiteSpace=wrap;html=1;aspect=fixed;fontSize=16;fontFamily=Helvetica;direction=south;" vertex="1" parent="1">
                    <mxGeometry x="630" y="-20" width="20" height="20" as="geometry"/>
                </mxCell>
                <mxCell id="128" style="edgeStyle=none;html=1;exitX=1;exitY=0.5;exitDx=0;exitDy=0;entryX=0;entryY=0.5;entryDx=0;entryDy=0;fontFamily=Helvetica;fontSize=16;endArrow=classic;endFill=1;endSize=4;strokeWidth=1;" edge="1" parent="1" source="130" target="143">
                    <mxGeometry relative="1" as="geometry"/>
                </mxCell>
                <mxCell id="129" value="6" style="edgeLabel;html=1;align=center;verticalAlign=middle;resizable=0;points=[];fontSize=12;fontFamily=Helvetica;" vertex="1" connectable="0" parent="128">
                    <mxGeometry x="0.3227" y="-1" relative="1" as="geometry">
                        <mxPoint x="-6" as="offset"/>
                    </mxGeometry>
                </mxCell>
                <mxCell id="130" value="" style="ellipse;whiteSpace=wrap;html=1;aspect=fixed;fontSize=16;fontFamily=Helvetica;" vertex="1" parent="1">
                    <mxGeometry x="660" y="-60" width="20" height="20" as="geometry"/>
                </mxCell>
                <mxCell id="131" style="edgeStyle=none;html=1;exitX=1;exitY=0.5;exitDx=0;exitDy=0;entryX=0.5;entryY=1;entryDx=0;entryDy=0;fontFamily=Helvetica;fontSize=16;endArrow=classic;endFill=1;endSize=4;strokeWidth=1;" edge="1" parent="1" source="133" target="127">
                    <mxGeometry relative="1" as="geometry"/>
                </mxCell>
                <mxCell id="132" value="9" style="edgeLabel;html=1;align=center;verticalAlign=middle;resizable=0;points=[];fontSize=12;fontFamily=Helvetica;" vertex="1" connectable="0" parent="131">
                    <mxGeometry x="-0.391" y="1" relative="1" as="geometry">
                        <mxPoint x="1" y="1" as="offset"/>
                    </mxGeometry>
                </mxCell>
                <mxCell id="133" value="" style="ellipse;whiteSpace=wrap;html=1;aspect=fixed;fontSize=16;fontFamily=Helvetica;" vertex="1" parent="1">
                    <mxGeometry x="580" y="-10" width="20" height="20" as="geometry"/>
                </mxCell>
                <mxCell id="134" style="edgeStyle=none;html=1;exitX=0;exitY=0;exitDx=0;exitDy=0;entryX=1;entryY=1;entryDx=0;entryDy=0;fontFamily=Helvetica;fontSize=16;endArrow=classic;endFill=1;endSize=4;strokeWidth=1;" edge="1" parent="1" source="140" target="130">
                    <mxGeometry relative="1" as="geometry"/>
                </mxCell>
                <mxCell id="135" value="5" style="edgeLabel;html=1;align=center;verticalAlign=middle;resizable=0;points=[];fontSize=12;fontFamily=Helvetica;" vertex="1" connectable="0" parent="134">
                    <mxGeometry x="-0.3574" y="1" relative="1" as="geometry">
                        <mxPoint x="-3" y="-4" as="offset"/>
                    </mxGeometry>
                </mxCell>
                <mxCell id="136" style="edgeStyle=none;html=1;exitX=1;exitY=0.5;exitDx=0;exitDy=0;entryX=0;entryY=0.5;entryDx=0;entryDy=0;fontFamily=Helvetica;fontSize=16;endArrow=classic;endFill=1;endSize=4;strokeWidth=1;" edge="1" parent="1" source="140" target="117">
                    <mxGeometry relative="1" as="geometry"/>
                </mxCell>
                <mxCell id="137" value="8" style="edgeLabel;html=1;align=center;verticalAlign=middle;resizable=0;points=[];fontSize=12;fontFamily=Helvetica;" vertex="1" connectable="0" parent="136">
                    <mxGeometry x="-0.2747" relative="1" as="geometry">
                        <mxPoint x="1" as="offset"/>
                    </mxGeometry>
                </mxCell>
                <mxCell id="138" style="edgeStyle=none;html=1;exitX=1;exitY=0;exitDx=0;exitDy=0;entryX=0.5;entryY=1;entryDx=0;entryDy=0;fontFamily=Helvetica;fontSize=16;endArrow=classic;endFill=1;endSize=4;strokeWidth=1;" edge="1" parent="1" source="140" target="143">
                    <mxGeometry relative="1" as="geometry"/>
                </mxCell>
                <mxCell id="139" value="4" style="edgeLabel;html=1;align=center;verticalAlign=middle;resizable=0;points=[];fontSize=12;fontFamily=Helvetica;" vertex="1" connectable="0" parent="138">
                    <mxGeometry x="-0.2646" relative="1" as="geometry">
                        <mxPoint y="-1" as="offset"/>
                    </mxGeometry>
                </mxCell>
                <mxCell id="140" value="" style="ellipse;whiteSpace=wrap;html=1;aspect=fixed;fontSize=16;fontFamily=Helvetica;" vertex="1" parent="1">
                    <mxGeometry x="710" y="-20" width="20" height="20" as="geometry"/>
                </mxCell>
                <mxCell id="141" style="edgeStyle=none;html=1;exitX=1;exitY=1;exitDx=0;exitDy=0;entryX=0;entryY=0;entryDx=0;entryDy=0;fontFamily=Helvetica;fontSize=16;endArrow=classic;endFill=1;endSize=4;strokeWidth=1;" edge="1" parent="1" source="143" target="117">
                    <mxGeometry relative="1" as="geometry"/>
                </mxCell>
                <mxCell id="142" value="6" style="edgeLabel;html=1;align=center;verticalAlign=middle;resizable=0;points=[];fontSize=12;fontFamily=Helvetica;" vertex="1" connectable="0" parent="141">
                    <mxGeometry x="-0.5418" relative="1" as="geometry">
                        <mxPoint x="3" y="3" as="offset"/>
                    </mxGeometry>
                </mxCell>
                <mxCell id="143" value="" style="ellipse;whiteSpace=wrap;html=1;aspect=fixed;fontSize=16;fontFamily=Helvetica;" vertex="1" parent="1">
                    <mxGeometry x="730" y="-70" width="20" height="20" as="geometry"/>
                </mxCell>
                <mxCell id="145" value="" style="ellipse;whiteSpace=wrap;html=1;aspect=fixed;fontSize=16;fontFamily=Helvetica;" vertex="1" parent="1">
                    <mxGeometry x="630" y="40" width="20" height="20" as="geometry"/>
                </mxCell>
                <mxCell id="147" value="" style="shape=cross;whiteSpace=wrap;html=1;rounded=1;sketch=1;fontFamily=Helvetica;fontSize=12;size=0.11936612049739778;rotation=45;strokeColor=#FF3333;fillColor=default;" vertex="1" parent="1">
                    <mxGeometry x="620.0000000000001" y="18" width="40" height="40" as="geometry"/>
                </mxCell>
                <mxCell id="150" value="4" style="whiteSpace=wrap;html=1;aspect=fixed;sketch=1;fontFamily=Helvetica;fontSize=25;rounded=1;" vertex="1" parent="1">
                    <mxGeometry x="-100" y="200" width="40" height="40" as="geometry"/>
                </mxCell>
                <mxCell id="151" value="Um fluxo no grafo \(G\) é uma função \(f: V \times V \to \mathbb{R}\) que satisfaz duas propriedades:" style="text;html=1;strokeColor=none;fillColor=none;align=center;verticalAlign=middle;whiteSpace=wrap;rounded=0;sketch=1;fontFamily=Josefin Sans;fontSource=https%3A%2F%2Ffonts.googleapis.com%2Fcss%3Ffamily%3DJosefin%2BSans;fontSize=15;" vertex="1" parent="1">
                    <mxGeometry x="-220" y="260" width="280" height="70" as="geometry"/>
                </mxCell>
                <mxCell id="187" value="Não pode!" style="text;html=1;strokeColor=none;fillColor=none;align=center;verticalAlign=middle;whiteSpace=wrap;rounded=0;sketch=1;fontFamily=Josefin Sans;fontSource=https%3A%2F%2Ffonts.googleapis.com%2Fcss%3Ffamily%3DJosefin%2BSans;fontSize=11;fontColor=#CCCCCC;labelBorderColor=none;" vertex="1" parent="1">
                    <mxGeometry x="660" y="27" width="60" height="22" as="geometry"/>
                </mxCell>
                <mxCell id="188" value="&lt;span style=&quot;font-size: 10px;&quot;&gt;Capacidade: &lt;br style=&quot;font-size: 10px;&quot;&gt;Para todo \(u, v \in V\), temos \(0 \leq f(u,v) \leq c(u,v)\).&lt;/span&gt;" style="text;html=1;strokeColor=none;fillColor=none;align=center;verticalAlign=middle;whiteSpace=wrap;rounded=0;sketch=1;fontFamily=Josefin Sans;fontSource=https%3A%2F%2Ffonts.googleapis.com%2Fcss%3Ffamily%3DJosefin%2BSans;fontSize=10;" vertex="1" parent="1">
                    <mxGeometry x="-200" y="330" width="240" height="30" as="geometry"/>
                </mxCell>
                <mxCell id="189" value="&lt;span style=&quot;font-size: 10px;&quot;&gt;Conservação do fluxo: &lt;br style=&quot;font-size: 10px;&quot;&gt;Para todo \(u \in V - \{s, t\}\), temos \(\sum\limits_{v\in V} f(v, u) = \sum\limits_{v\in V} f(u, v)\).&lt;/span&gt;" style="text;html=1;strokeColor=none;fillColor=none;align=center;verticalAlign=middle;whiteSpace=wrap;rounded=0;sketch=1;fontFamily=Josefin Sans;fontSource=https%3A%2F%2Ffonts.googleapis.com%2Fcss%3Ffamily%3DJosefin%2BSans;fontSize=10;" vertex="1" parent="1">
                    <mxGeometry x="-200" y="360" width="240" height="50" as="geometry"/>
                </mxCell>
                <mxCell id="190" style="edgeStyle=none;html=1;exitX=1;exitY=0;exitDx=0;exitDy=0;entryX=0;entryY=0.5;entryDx=0;entryDy=0;fontFamily=Helvetica;fontSize=16;endArrow=classic;endFill=1;endSize=4;strokeWidth=1;" edge="1" parent="1" source="194" target="198">
                    <mxGeometry relative="1" as="geometry"/>
                </mxCell>
                <mxCell id="191" value="3/3" style="edgeLabel;html=1;align=center;verticalAlign=middle;resizable=0;points=[];fontSize=12;fontFamily=Helvetica;" vertex="1" connectable="0" parent="190">
                    <mxGeometry x="-0.4443" y="-1" relative="1" as="geometry">
                        <mxPoint x="7" y="-4" as="offset"/>
                    </mxGeometry>
                </mxCell>
                <mxCell id="192" style="edgeStyle=none;html=1;exitX=1;exitY=1;exitDx=0;exitDy=0;entryX=0;entryY=0.5;entryDx=0;entryDy=0;fontFamily=Helvetica;fontSize=16;endArrow=classic;endFill=1;endSize=4;strokeWidth=1;" edge="1" parent="1" source="194" target="211">
                    <mxGeometry relative="1" as="geometry"/>
                </mxCell>
                <mxCell id="193" value="5/9" style="edgeLabel;html=1;align=center;verticalAlign=middle;resizable=0;points=[];fontSize=12;fontFamily=Helvetica;" vertex="1" connectable="0" parent="192">
                    <mxGeometry x="-0.6008" relative="1" as="geometry">
                        <mxPoint x="7" y="2" as="offset"/>
                    </mxGeometry>
                </mxCell>
                <mxCell id="194" value="\(s\)" style="ellipse;whiteSpace=wrap;html=1;aspect=fixed;fontSize=16;fontFamily=Helvetica;" vertex="1" parent="1">
                    <mxGeometry x="-230" y="440" width="40" height="40" as="geometry"/>
                </mxCell>
                <mxCell id="195" value="\(t\)" style="ellipse;whiteSpace=wrap;html=1;aspect=fixed;fontSize=16;fontFamily=Helvetica;" vertex="1" parent="1">
                    <mxGeometry x="40" y="450" width="40" height="40" as="geometry"/>
                </mxCell>
                <mxCell id="196" style="edgeStyle=none;html=1;exitX=1;exitY=0.5;exitDx=0;exitDy=0;entryX=0;entryY=0.5;entryDx=0;entryDy=0;fontFamily=Helvetica;fontSize=16;endArrow=classic;endFill=1;endSize=4;strokeWidth=1;" edge="1" parent="1" source="198" target="208">
                    <mxGeometry relative="1" as="geometry"/>
                </mxCell>
                <mxCell id="197" value="4/7" style="edgeLabel;html=1;align=center;verticalAlign=middle;resizable=0;points=[];fontSize=12;fontFamily=Helvetica;" vertex="1" connectable="0" parent="196">
                    <mxGeometry x="-0.3693" y="-1" relative="1" as="geometry">
                        <mxPoint x="7" y="1" as="offset"/>
                    </mxGeometry>
                </mxCell>
                <mxCell id="198" value="" style="ellipse;whiteSpace=wrap;html=1;aspect=fixed;fontSize=16;fontFamily=Helvetica;" vertex="1" parent="1">
                    <mxGeometry x="-150" y="420" width="20" height="20" as="geometry"/>
                </mxCell>
                <mxCell id="199" style="edgeStyle=none;html=1;exitX=0;exitY=1;exitDx=0;exitDy=0;entryX=1;entryY=1;entryDx=0;entryDy=0;fontFamily=Helvetica;fontSize=16;endArrow=classic;endFill=1;endSize=4;strokeWidth=1;" edge="1" parent="1" source="205" target="198">
                    <mxGeometry relative="1" as="geometry"/>
                </mxCell>
                <mxCell id="200" value="1/4" style="edgeLabel;html=1;align=center;verticalAlign=middle;resizable=0;points=[];fontSize=12;fontFamily=Helvetica;" vertex="1" connectable="0" parent="199">
                    <mxGeometry x="-0.5383" relative="1" as="geometry">
                        <mxPoint x="-5" y="-6" as="offset"/>
                    </mxGeometry>
                </mxCell>
                <mxCell id="201" style="edgeStyle=none;html=1;exitX=0;exitY=0;exitDx=0;exitDy=0;entryX=0;entryY=1;entryDx=0;entryDy=0;fontFamily=Helvetica;fontSize=16;endArrow=classic;endFill=1;endSize=4;strokeWidth=1;" edge="1" parent="1" source="205" target="208">
                    <mxGeometry relative="1" as="geometry"/>
                </mxCell>
                <mxCell id="202" value="0/2" style="edgeLabel;html=1;align=center;verticalAlign=middle;resizable=0;points=[];fontSize=12;fontFamily=Helvetica;" vertex="1" connectable="0" parent="201">
                    <mxGeometry x="-0.3861" y="1" relative="1" as="geometry">
                        <mxPoint x="2" y="-2" as="offset"/>
                    </mxGeometry>
                </mxCell>
                <mxCell id="203" style="edgeStyle=none;html=1;exitX=0.5;exitY=0;exitDx=0;exitDy=0;entryX=0;entryY=0.5;entryDx=0;entryDy=0;fontFamily=Helvetica;fontSize=16;endArrow=classic;endFill=1;endSize=4;strokeWidth=1;" edge="1" parent="1" source="205" target="218">
                    <mxGeometry relative="1" as="geometry"/>
                </mxCell>
                <mxCell id="204" value="4/4" style="edgeLabel;html=1;align=center;verticalAlign=middle;resizable=0;points=[];fontSize=12;fontFamily=Helvetica;" vertex="1" connectable="0" parent="203">
                    <mxGeometry x="-0.5945" relative="1" as="geometry">
                        <mxPoint x="12" as="offset"/>
                    </mxGeometry>
                </mxCell>
                <mxCell id="205" value="" style="ellipse;whiteSpace=wrap;html=1;aspect=fixed;fontSize=16;fontFamily=Helvetica;direction=south;" vertex="1" parent="1">
                    <mxGeometry x="-110" y="480" width="20" height="20" as="geometry"/>
                </mxCell>
                <mxCell id="206" style="edgeStyle=none;html=1;exitX=1;exitY=0.5;exitDx=0;exitDy=0;entryX=0;entryY=0.5;entryDx=0;entryDy=0;fontFamily=Helvetica;fontSize=16;endArrow=classic;endFill=1;endSize=4;strokeWidth=1;" edge="1" parent="1" source="208" target="221">
                    <mxGeometry relative="1" as="geometry"/>
                </mxCell>
                <mxCell id="207" value="4/6" style="edgeLabel;html=1;align=center;verticalAlign=middle;resizable=0;points=[];fontSize=12;fontFamily=Helvetica;" vertex="1" connectable="0" parent="206">
                    <mxGeometry x="0.3227" y="-1" relative="1" as="geometry">
                        <mxPoint x="-6" as="offset"/>
                    </mxGeometry>
                </mxCell>
                <mxCell id="208" value="" style="ellipse;whiteSpace=wrap;html=1;aspect=fixed;fontSize=16;fontFamily=Helvetica;" vertex="1" parent="1">
                    <mxGeometry x="-80" y="430" width="20" height="20" as="geometry"/>
                </mxCell>
                <mxCell id="209" style="edgeStyle=none;html=1;exitX=1;exitY=0.5;exitDx=0;exitDy=0;entryX=0.5;entryY=1;entryDx=0;entryDy=0;fontFamily=Helvetica;fontSize=16;endArrow=classic;endFill=1;endSize=4;strokeWidth=1;" edge="1" parent="1" source="211" target="205">
                    <mxGeometry relative="1" as="geometry"/>
                </mxCell>
                <mxCell id="210" value="5/9" style="edgeLabel;html=1;align=center;verticalAlign=middle;resizable=0;points=[];fontSize=12;fontFamily=Helvetica;" vertex="1" connectable="0" parent="209">
                    <mxGeometry x="-0.391" y="1" relative="1" as="geometry">
                        <mxPoint x="4" y="-2" as="offset"/>
                    </mxGeometry>
                </mxCell>
                <mxCell id="211" value="" style="ellipse;whiteSpace=wrap;html=1;aspect=fixed;fontSize=16;fontFamily=Helvetica;" vertex="1" parent="1">
                    <mxGeometry x="-170" y="490" width="20" height="20" as="geometry"/>
                </mxCell>
                <mxCell id="212" style="edgeStyle=none;html=1;exitX=0;exitY=0;exitDx=0;exitDy=0;entryX=1;entryY=1;entryDx=0;entryDy=0;fontFamily=Helvetica;fontSize=16;endArrow=classic;endFill=1;endSize=4;strokeWidth=1;" edge="1" parent="1" source="218" target="208">
                    <mxGeometry relative="1" as="geometry"/>
                </mxCell>
                <mxCell id="213" value="0/5" style="edgeLabel;html=1;align=center;verticalAlign=middle;resizable=0;points=[];fontSize=12;fontFamily=Helvetica;" vertex="1" connectable="0" parent="212">
                    <mxGeometry x="-0.3574" y="1" relative="1" as="geometry">
                        <mxPoint x="-4" y="-5" as="offset"/>
                    </mxGeometry>
                </mxCell>
                <mxCell id="214" style="edgeStyle=none;html=1;exitX=1;exitY=0.5;exitDx=0;exitDy=0;entryX=0;entryY=0.5;entryDx=0;entryDy=0;fontFamily=Helvetica;fontSize=16;endArrow=classic;endFill=1;endSize=4;strokeWidth=1;" edge="1" parent="1" source="218" target="195">
                    <mxGeometry relative="1" as="geometry"/>
                </mxCell>
                <mxCell id="215" value="4/8" style="edgeLabel;html=1;align=center;verticalAlign=middle;resizable=0;points=[];fontSize=12;fontFamily=Helvetica;" vertex="1" connectable="0" parent="214">
                    <mxGeometry x="-0.2747" relative="1" as="geometry">
                        <mxPoint x="3" y="1" as="offset"/>
                    </mxGeometry>
                </mxCell>
                <mxCell id="216" style="edgeStyle=none;html=1;exitX=1;exitY=0;exitDx=0;exitDy=0;entryX=0.5;entryY=1;entryDx=0;entryDy=0;fontFamily=Helvetica;fontSize=16;endArrow=classic;endFill=1;endSize=4;strokeWidth=1;" edge="1" parent="1" source="218" target="221">
                    <mxGeometry relative="1" as="geometry"/>
                </mxCell>
                <mxCell id="217" value="0/4" style="edgeLabel;html=1;align=center;verticalAlign=middle;resizable=0;points=[];fontSize=12;fontFamily=Helvetica;" vertex="1" connectable="0" parent="216">
                    <mxGeometry x="-0.2646" relative="1" as="geometry">
                        <mxPoint y="-3" as="offset"/>
                    </mxGeometry>
                </mxCell>
                <mxCell id="218" value="" style="ellipse;whiteSpace=wrap;html=1;aspect=fixed;fontSize=16;fontFamily=Helvetica;" vertex="1" parent="1">
                    <mxGeometry x="-30" y="470" width="20" height="20" as="geometry"/>
                </mxCell>
                <mxCell id="219" style="edgeStyle=none;html=1;exitX=1;exitY=1;exitDx=0;exitDy=0;entryX=0;entryY=0;entryDx=0;entryDy=0;fontFamily=Helvetica;fontSize=16;endArrow=classic;endFill=1;endSize=4;strokeWidth=1;" edge="1" parent="1" source="221" target="195">
                    <mxGeometry relative="1" as="geometry"/>
                </mxCell>
                <mxCell id="220" value="4/6" style="edgeLabel;html=1;align=center;verticalAlign=middle;resizable=0;points=[];fontSize=12;fontFamily=Helvetica;" vertex="1" connectable="0" parent="219">
                    <mxGeometry x="-0.5418" relative="1" as="geometry">
                        <mxPoint x="6" y="2" as="offset"/>
                    </mxGeometry>
                </mxCell>
                <mxCell id="221" value="" style="ellipse;whiteSpace=wrap;html=1;aspect=fixed;fontSize=16;fontFamily=Helvetica;" vertex="1" parent="1">
                    <mxGeometry x="-10" y="420" width="20" height="20" as="geometry"/>
                </mxCell>
                <mxCell id="224" value="" style="ellipse;whiteSpace=wrap;html=1;rounded=1;labelBorderColor=none;sketch=1;fontFamily=Helvetica;fontSize=10;fontColor=#CCCCCC;strokeColor=#FF3333;fillColor=none;" vertex="1" parent="1">
                    <mxGeometry x="-4" y="466" width="35" height="24" as="geometry"/>
                </mxCell>
                <mxCell id="228" value="Indica o fluxo nessa aresta:&lt;br&gt;&lt;b&gt;{fluxo}/{capacidade}&lt;/b&gt;" style="text;html=1;strokeColor=none;fillColor=none;align=center;verticalAlign=middle;whiteSpace=wrap;rounded=0;sketch=1;fontFamily=Josefin Sans;fontSource=https%3A%2F%2Ffonts.googleapis.com%2Fcss%3Ffamily%3DJosefin%2BSans;fontSize=11;fontColor=#CCCCCC;labelBorderColor=none;" vertex="1" parent="1">
                    <mxGeometry x="-48" y="493" width="125" height="41" as="geometry"/>
                </mxCell>
                <mxCell id="229" value="" style="ellipse;whiteSpace=wrap;html=1;rounded=1;labelBorderColor=none;sketch=1;fontFamily=Helvetica;fontSize=10;fontColor=#CCCCCC;strokeColor=#FF3333;fillColor=none;" vertex="1" parent="1">
                    <mxGeometry x="-207.5" y="73" width="55" height="74" as="geometry"/>
                </mxCell>
                <mxCell id="230" value="" style="ellipse;whiteSpace=wrap;html=1;rounded=1;labelBorderColor=none;sketch=1;fontFamily=Helvetica;fontSize=10;fontColor=#CCCCCC;strokeColor=#FF3333;fillColor=none;" vertex="1" parent="1">
                    <mxGeometry x="38.25" y="81.5" width="47.5" height="57" as="geometry"/>
                </mxCell>
                <mxCell id="231" value="Fonte" style="text;html=1;strokeColor=none;fillColor=none;align=center;verticalAlign=middle;whiteSpace=wrap;rounded=0;sketch=1;fontFamily=Josefin Sans;fontSource=https%3A%2F%2Ffonts.googleapis.com%2Fcss%3Ffamily%3DJosefin%2BSans;fontSize=11;fontColor=#CCCCCC;labelBorderColor=none;rotation=-45;" vertex="1" parent="1">
                    <mxGeometry x="-244" y="65" width="60" height="20" as="geometry"/>
                </mxCell>
                <mxCell id="232" value="Soverdouro" style="text;html=1;strokeColor=none;fillColor=none;align=center;verticalAlign=middle;whiteSpace=wrap;rounded=0;sketch=1;fontFamily=Josefin Sans;fontSource=https%3A%2F%2Ffonts.googleapis.com%2Fcss%3Ffamily%3DJosefin%2BSans;fontSize=11;fontColor=#CCCCCC;labelBorderColor=none;rotation=-30;" vertex="1" parent="1">
                    <mxGeometry x="55" y="134.5" width="60" height="20" as="geometry"/>
                </mxCell>
                <mxCell id="233" value="" style="ellipse;whiteSpace=wrap;html=1;rounded=1;labelBorderColor=none;sketch=1;fontFamily=Helvetica;fontSize=10;fontColor=#CCCCCC;strokeColor=#FF3333;fillColor=none;" vertex="1" parent="1">
                    <mxGeometry x="241" y="-4" width="20" height="20" as="geometry"/>
                </mxCell>
                <mxCell id="234" value="Capacidade da aresta" style="text;html=1;strokeColor=none;fillColor=none;align=center;verticalAlign=middle;whiteSpace=wrap;rounded=0;sketch=1;fontFamily=Josefin Sans;fontSource=https%3A%2F%2Ffonts.googleapis.com%2Fcss%3Ffamily%3DJosefin%2BSans;fontSize=11;fontColor=#CCCCCC;labelBorderColor=none;rotation=0;" vertex="1" parent="1">
                    <mxGeometry x="245" y="21.5" width="70" height="33" as="geometry"/>
                </mxCell>
                <mxCell id="235" value="5" style="whiteSpace=wrap;html=1;aspect=fixed;sketch=1;fontFamily=Helvetica;fontSize=25;rounded=1;" vertex="1" parent="1">
                    <mxGeometry x="280" y="80" width="40" height="40" as="geometry"/>
                </mxCell>
                <mxCell id="236" value="O valor de um fluxo \(f\) em um grafo \(G\) é denotado por \(|f|\) e é definido por:" style="text;html=1;strokeColor=none;fillColor=none;align=center;verticalAlign=middle;whiteSpace=wrap;rounded=0;sketch=1;fontFamily=Josefin Sans;fontSource=https%3A%2F%2Ffonts.googleapis.com%2Fcss%3Ffamily%3DJosefin%2BSans;fontSize=15;" vertex="1" parent="1">
                    <mxGeometry x="160" y="140" width="280" height="60" as="geometry"/>
                </mxCell>
                <mxCell id="273" value="&amp;nbsp;\(\sum\limits_{v\in V}f(s,v) - \sum\limits_{v\in V}f(v, s)\)" style="text;html=1;strokeColor=none;fillColor=none;align=center;verticalAlign=middle;whiteSpace=wrap;rounded=0;sketch=1;fontFamily=Josefin Sans;fontSource=https%3A%2F%2Ffonts.googleapis.com%2Fcss%3Ffamily%3DJosefin%2BSans;fontSize=15;" vertex="1" parent="1">
                    <mxGeometry x="220" y="200" width="160" height="40" as="geometry"/>
                </mxCell>
                <mxCell id="274" value="Ou seja, é a quantidade de fluxo que sai da &lt;i&gt;fonte&lt;/i&gt;&amp;nbsp;menos a quantidade que chega na &lt;i&gt;fonte&lt;/i&gt;." style="text;html=1;strokeColor=none;fillColor=none;align=center;verticalAlign=middle;whiteSpace=wrap;rounded=0;sketch=1;fontFamily=Josefin Sans;fontSource=https%3A%2F%2Ffonts.googleapis.com%2Fcss%3Ffamily%3DJosefin%2BSans;fontSize=15;" vertex="1" parent="1">
                    <mxGeometry x="160" y="240" width="280" height="70" as="geometry"/>
                </mxCell>
                <mxCell id="275" value="Apesar de um grafo de rede não possuir arestas chegando na fonte, o &lt;i&gt;grafo residual &lt;/i&gt;(utilizado para resolver o problema do fluxo máximo), possui. Por isso esse valor aparece na fórmula." style="text;html=1;strokeColor=none;fillColor=none;align=center;verticalAlign=middle;whiteSpace=wrap;rounded=0;sketch=1;fontFamily=Josefin Sans;fontSource=https%3A%2F%2Ffonts.googleapis.com%2Fcss%3Ffamily%3DJosefin%2BSans;fontSize=15;" vertex="1" parent="1">
                    <mxGeometry x="160" y="310" width="280" height="105" as="geometry"/>
                </mxCell>
                <mxCell id="276" value="6" style="whiteSpace=wrap;html=1;aspect=fixed;sketch=1;fontFamily=Helvetica;fontSize=25;rounded=1;" vertex="1" parent="1">
                    <mxGeometry x="640" y="81.5" width="40" height="40" as="geometry"/>
                </mxCell>
                <mxCell id="277" value="O &lt;b&gt;Problema do Fluxo Máximo&lt;/b&gt;&amp;nbsp;busca encontrar um fluxo \(f\) em um grafo \(G\) de forma que \(|f|\) atinja seu valor máximo." style="text;html=1;strokeColor=none;fillColor=none;align=center;verticalAlign=middle;whiteSpace=wrap;rounded=0;sketch=1;fontFamily=Josefin Sans;fontSource=https%3A%2F%2Ffonts.googleapis.com%2Fcss%3Ffamily%3DJosefin%2BSans;fontSize=15;" vertex="1" parent="1">
                    <mxGeometry x="520" y="141.5" width="280" height="60" as="geometry"/>
                </mxCell>
                <mxCell id="282" style="edgeStyle=none;html=1;exitX=1;exitY=0;exitDx=0;exitDy=0;entryX=0;entryY=0.5;entryDx=0;entryDy=0;fontFamily=Helvetica;fontSize=16;endArrow=classic;endFill=1;endSize=4;strokeWidth=1;" edge="1" parent="1" source="286" target="287">
                    <mxGeometry relative="1" as="geometry"/>
                </mxCell>
                <mxCell id="283" value="3/3" style="edgeLabel;html=1;align=center;verticalAlign=middle;resizable=0;points=[];fontSize=12;fontFamily=Helvetica;" vertex="1" connectable="0" parent="282">
                    <mxGeometry x="-0.4443" y="-1" relative="1" as="geometry">
                        <mxPoint x="7" y="-4" as="offset"/>
                    </mxGeometry>
                </mxCell>
                <mxCell id="284" style="edgeStyle=none;html=1;exitX=1;exitY=1;exitDx=0;exitDy=0;entryX=0;entryY=0.5;entryDx=0;entryDy=0;fontFamily=Helvetica;fontSize=16;endArrow=classic;endFill=1;endSize=4;strokeWidth=1;" edge="1" parent="1" source="286" target="289">
                    <mxGeometry relative="1" as="geometry"/>
                </mxCell>
                <mxCell id="285" value="5/9" style="edgeLabel;html=1;align=center;verticalAlign=middle;resizable=0;points=[];fontSize=12;fontFamily=Helvetica;" vertex="1" connectable="0" parent="284">
                    <mxGeometry x="-0.6008" relative="1" as="geometry">
                        <mxPoint x="7" y="2" as="offset"/>
                    </mxGeometry>
                </mxCell>
                <mxCell id="286" value="\(s\)" style="ellipse;whiteSpace=wrap;html=1;aspect=fixed;fontSize=16;fontFamily=Helvetica;" vertex="1" parent="1">
                    <mxGeometry x="161" y="440" width="40" height="40" as="geometry"/>
                </mxCell>
                <mxCell id="292" style="edgeStyle=none;html=1;exitX=1;exitY=0.5;exitDx=0;exitDy=0;entryX=0.25;entryY=0;entryDx=0;entryDy=0;fontFamily=Helvetica;fontSize=22;fontColor=#CCCCCC;endArrow=classic;endFill=1;endSize=4;strokeWidth=1;dashed=1;" edge="1" parent="1" source="287" target="290">
                    <mxGeometry relative="1" as="geometry"/>
                </mxCell>
                <mxCell id="287" value="" style="ellipse;whiteSpace=wrap;html=1;aspect=fixed;fontSize=16;fontFamily=Helvetica;" vertex="1" parent="1">
                    <mxGeometry x="241" y="420" width="20" height="20" as="geometry"/>
                </mxCell>
                <mxCell id="291" style="edgeStyle=none;html=1;exitX=1;exitY=0.5;exitDx=0;exitDy=0;fontFamily=Helvetica;fontSize=22;fontColor=#CCCCCC;endArrow=classic;endFill=1;endSize=4;strokeWidth=1;entryX=0.25;entryY=1;entryDx=0;entryDy=0;dashed=1;" edge="1" parent="1" source="289" target="290">
                    <mxGeometry relative="1" as="geometry">
                        <mxPoint x="290" y="480" as="targetPoint"/>
                    </mxGeometry>
                </mxCell>
                <mxCell id="289" value="" style="ellipse;whiteSpace=wrap;html=1;aspect=fixed;fontSize=16;fontFamily=Helvetica;" vertex="1" parent="1">
                    <mxGeometry x="221" y="490" width="20" height="20" as="geometry"/>
                </mxCell>
                <mxCell id="294" style="edgeStyle=none;html=1;exitX=1;exitY=0.5;exitDx=0;exitDy=0;entryX=0;entryY=0.5;entryDx=0;entryDy=0;dashed=1;fontFamily=Helvetica;fontSize=22;fontColor=#CCCCCC;endArrow=classic;endFill=1;endSize=4;strokeWidth=1;" edge="1" parent="1" source="290" target="293">
                    <mxGeometry relative="1" as="geometry"/>
                </mxCell>
                <mxCell id="290" value="\(\dots\)" style="text;html=1;strokeColor=none;fillColor=none;align=center;verticalAlign=bottom;whiteSpace=wrap;rounded=0;labelBorderColor=none;sketch=1;fontFamily=Helvetica;fontSize=22;fontColor=#CCCCCC;" vertex="1" parent="1">
                    <mxGeometry x="299" y="450" width="40" height="20" as="geometry"/>
                </mxCell>
                <mxCell id="293" value="\(t\)" style="ellipse;whiteSpace=wrap;html=1;aspect=fixed;fontSize=16;fontFamily=Helvetica;" vertex="1" parent="1">
                    <mxGeometry x="400" y="440" width="40" height="40" as="geometry"/>
                </mxCell>
                <mxCell id="295" value="&amp;nbsp;\(|f| = 3 + 5 = 8\)" style="text;html=1;strokeColor=none;fillColor=none;align=center;verticalAlign=middle;whiteSpace=wrap;rounded=0;sketch=1;fontFamily=Josefin Sans;fontSource=https%3A%2F%2Ffonts.googleapis.com%2Fcss%3Ffamily%3DJosefin%2BSans;fontSize=15;" vertex="1" parent="1">
                    <mxGeometry x="269.5" y="510" width="99" height="30" as="geometry"/>
                </mxCell>
                <mxCell id="296" value="" style="ellipse;whiteSpace=wrap;html=1;rounded=1;labelBorderColor=none;sketch=1;fontFamily=Helvetica;fontSize=10;fontColor=#CCCCCC;strokeColor=#FF3333;fillColor=none;" vertex="1" parent="1">
                    <mxGeometry x="270" y="504" width="105" height="45" as="geometry"/>
                </mxCell>
                <mxCell id="298" style="edgeStyle=orthogonalEdgeStyle;html=1;exitX=0.492;exitY=1.027;exitDx=0;exitDy=0;fontFamily=Helvetica;fontSize=22;fontColor=#CCCCCC;endArrow=classic;endFill=1;endSize=4;strokeWidth=1;curved=1;sketch=1;shadow=0;strokeColor=#FF3333;exitPerimeter=0;" edge="1" parent="1" source="297">
                    <mxGeometry relative="1" as="geometry">
                        <mxPoint x="270" y="527" as="targetPoint"/>
                        <Array as="points">
                            <mxPoint x="207" y="527"/>
                            <mxPoint x="270" y="527"/>
                        </Array>
                    </mxGeometry>
                </mxCell>
                <mxCell id="297" value="" style="ellipse;whiteSpace=wrap;html=1;rounded=1;labelBorderColor=none;sketch=1;fontFamily=Helvetica;fontSize=10;fontColor=#CCCCCC;strokeColor=#FF3333;fillColor=none;rotation=10;" vertex="1" parent="1">
                    <mxGeometry x="198" y="426" width="31" height="70" as="geometry"/>
                </mxCell>
                <mxCell id="299" value="Matematicamente, queremos encontrar \(f^{*} = \operatorname{argmax}\limits_{f} |f|\)&amp;nbsp;&amp;nbsp;" style="text;html=1;strokeColor=none;fillColor=none;align=center;verticalAlign=middle;whiteSpace=wrap;rounded=0;sketch=1;fontFamily=Josefin Sans;fontSource=https%3A%2F%2Ffonts.googleapis.com%2Fcss%3Ffamily%3DJosefin%2BSans;fontSize=15;" vertex="1" parent="1">
                    <mxGeometry x="520" y="201" width="280" height="50" as="geometry"/>
                </mxCell>
                <mxCell id="300" value="Existem diferentes algoritmos para resolver esse problema, um deles é o algoritmo &lt;b&gt;Edmonds-Karp&lt;/b&gt;&amp;nbsp;que se baseia no procedimento de &lt;b&gt;Ford-Fulkerson&lt;/b&gt;." style="text;html=1;strokeColor=none;fillColor=none;align=center;verticalAlign=middle;whiteSpace=wrap;rounded=0;sketch=1;fontFamily=Josefin Sans;fontSource=https%3A%2F%2Ffonts.googleapis.com%2Fcss%3Ffamily%3DJosefin%2BSans;fontSize=15;" vertex="1" parent="1">
                    <mxGeometry x="520" y="248" width="280" height="90" as="geometry"/>
                </mxCell>
                <mxCell id="301" value="Nesse algoritmo, um fluxo inicial é melhorado iterativamente através do uso de&amp;nbsp;&lt;i&gt;caminhos aumentantes&lt;/i&gt;&amp;nbsp;em um Grafo Residual \(G_f\)." style="text;html=1;strokeColor=none;fillColor=none;align=center;verticalAlign=middle;whiteSpace=wrap;rounded=0;sketch=1;fontFamily=Josefin Sans;fontSource=https%3A%2F%2Ffonts.googleapis.com%2Fcss%3Ffamily%3DJosefin%2BSans;fontSize=15;" vertex="1" parent="1">
                    <mxGeometry x="520" y="331" width="280" height="80" as="geometry"/>
                </mxCell>
                <mxCell id="304" style="edgeStyle=none;html=1;exitX=1;exitY=0;exitDx=0;exitDy=0;entryX=0;entryY=0.5;entryDx=0;entryDy=0;fontFamily=Helvetica;fontSize=16;endArrow=none;endFill=0;endSize=4;strokeWidth=1;startArrow=classic;startFill=1;" edge="1" parent="1" source="308" target="312">
                    <mxGeometry relative="1" as="geometry"/>
                </mxCell>
                <mxCell id="305" value="3" style="edgeLabel;html=1;align=center;verticalAlign=middle;resizable=0;points=[];fontSize=12;fontFamily=Helvetica;" vertex="1" connectable="0" parent="304">
                    <mxGeometry x="-0.4443" y="-1" relative="1" as="geometry">
                        <mxPoint x="14" y="-6" as="offset"/>
                    </mxGeometry>
                </mxCell>
                <mxCell id="306" style="edgeStyle=none;html=1;exitX=0.5;exitY=1;exitDx=0;exitDy=0;entryX=0;entryY=1;entryDx=0;entryDy=0;fontFamily=Helvetica;fontSize=16;endArrow=classic;endFill=1;endSize=4;strokeWidth=1;strokeColor=#FF3333;sketch=1;shadow=0;" edge="1" parent="1" source="308" target="325">
                    <mxGeometry relative="1" as="geometry"/>
                </mxCell>
                <mxCell id="307" value="4" style="edgeLabel;html=1;align=center;verticalAlign=middle;resizable=0;points=[];fontSize=12;fontFamily=Helvetica;" vertex="1" connectable="0" parent="306">
                    <mxGeometry x="-0.6008" relative="1" as="geometry">
                        <mxPoint x="12" y="8" as="offset"/>
                    </mxGeometry>
                </mxCell>
                <mxCell id="308" value="\(s\)" style="ellipse;whiteSpace=wrap;html=1;aspect=fixed;fontSize=16;fontFamily=Helvetica;" vertex="1" parent="1">
                    <mxGeometry x="505" y="450" width="40" height="40" as="geometry"/>
                </mxCell>
                <mxCell id="309" value="\(t\)" style="ellipse;whiteSpace=wrap;html=1;aspect=fixed;fontSize=16;fontFamily=Helvetica;" vertex="1" parent="1">
                    <mxGeometry x="775" y="460" width="40" height="40" as="geometry"/>
                </mxCell>
                <mxCell id="310" style="edgeStyle=none;html=1;exitX=1;exitY=0;exitDx=0;exitDy=0;entryX=0;entryY=0;entryDx=0;entryDy=0;fontFamily=Helvetica;fontSize=16;endArrow=classic;endFill=1;endSize=4;strokeWidth=1;" edge="1" parent="1" source="312" target="322">
                    <mxGeometry relative="1" as="geometry"/>
                </mxCell>
                <mxCell id="311" value="3" style="edgeLabel;html=1;align=center;verticalAlign=middle;resizable=0;points=[];fontSize=12;fontFamily=Helvetica;" vertex="1" connectable="0" parent="310">
                    <mxGeometry x="-0.3693" y="-1" relative="1" as="geometry">
                        <mxPoint x="7" y="1" as="offset"/>
                    </mxGeometry>
                </mxCell>
                <mxCell id="312" value="" style="ellipse;whiteSpace=wrap;html=1;aspect=fixed;fontSize=16;fontFamily=Helvetica;" vertex="1" parent="1">
                    <mxGeometry x="585" y="430" width="20" height="20" as="geometry"/>
                </mxCell>
                <mxCell id="313" style="edgeStyle=none;html=1;exitX=0;exitY=0.5;exitDx=0;exitDy=0;entryX=1;entryY=1;entryDx=0;entryDy=0;fontFamily=Helvetica;fontSize=16;endArrow=classic;endFill=1;endSize=4;strokeWidth=1;" edge="1" parent="1" source="319" target="312">
                    <mxGeometry relative="1" as="geometry"/>
                </mxCell>
                <mxCell id="314" value="3" style="edgeLabel;html=1;align=center;verticalAlign=middle;resizable=0;points=[];fontSize=12;fontFamily=Helvetica;" vertex="1" connectable="0" parent="313">
                    <mxGeometry x="-0.5383" relative="1" as="geometry">
                        <mxPoint x="-14" y="-20" as="offset"/>
                    </mxGeometry>
                </mxCell>
                <mxCell id="315" style="edgeStyle=none;html=1;exitX=0;exitY=0;exitDx=0;exitDy=0;entryX=0;entryY=1;entryDx=0;entryDy=0;fontFamily=Helvetica;fontSize=16;endArrow=classic;endFill=1;endSize=4;strokeWidth=1;strokeColor=#FF3333;sketch=1;shadow=0;" edge="1" parent="1" source="319" target="322">
                    <mxGeometry relative="1" as="geometry"/>
                </mxCell>
                <mxCell id="316" value="2" style="edgeLabel;html=1;align=center;verticalAlign=middle;resizable=0;points=[];fontSize=12;fontFamily=Helvetica;" vertex="1" connectable="0" parent="315">
                    <mxGeometry x="-0.3861" y="1" relative="1" as="geometry">
                        <mxPoint x="2" y="-2" as="offset"/>
                    </mxGeometry>
                </mxCell>
                <mxCell id="317" style="edgeStyle=none;html=1;exitX=0.5;exitY=0;exitDx=0;exitDy=0;entryX=0;entryY=0.5;entryDx=0;entryDy=0;fontFamily=Helvetica;fontSize=16;endArrow=none;endFill=0;endSize=4;strokeWidth=1;startArrow=classic;startFill=1;" edge="1" parent="1" source="319" target="332">
                    <mxGeometry relative="1" as="geometry"/>
                </mxCell>
                <mxCell id="318" value="4" style="edgeLabel;html=1;align=center;verticalAlign=middle;resizable=0;points=[];fontSize=12;fontFamily=Helvetica;" vertex="1" connectable="0" parent="317">
                    <mxGeometry x="-0.5945" relative="1" as="geometry">
                        <mxPoint x="17" y="-2" as="offset"/>
                    </mxGeometry>
                </mxCell>
                <mxCell id="319" value="" style="ellipse;whiteSpace=wrap;html=1;aspect=fixed;fontSize=16;fontFamily=Helvetica;direction=south;" vertex="1" parent="1">
                    <mxGeometry x="625" y="490" width="20" height="20" as="geometry"/>
                </mxCell>
                <mxCell id="320" style="edgeStyle=none;html=1;exitX=1;exitY=0;exitDx=0;exitDy=0;entryX=0.031;entryY=0.332;entryDx=0;entryDy=0;fontFamily=Helvetica;fontSize=16;endArrow=classic;endFill=1;endSize=4;strokeWidth=1;entryPerimeter=0;strokeColor=#FF3333;sketch=1;shadow=0;" edge="1" parent="1" source="322" target="335">
                    <mxGeometry relative="1" as="geometry"/>
                </mxCell>
                <mxCell id="321" value="2" style="edgeLabel;html=1;align=center;verticalAlign=middle;resizable=0;points=[];fontSize=12;fontFamily=Helvetica;" vertex="1" connectable="0" parent="320">
                    <mxGeometry x="0.3227" y="-1" relative="1" as="geometry">
                        <mxPoint x="1" y="-1" as="offset"/>
                    </mxGeometry>
                </mxCell>
                <mxCell id="322" value="" style="ellipse;whiteSpace=wrap;html=1;aspect=fixed;fontSize=16;fontFamily=Helvetica;" vertex="1" parent="1">
                    <mxGeometry x="655" y="440" width="20" height="20" as="geometry"/>
                </mxCell>
                <mxCell id="323" style="edgeStyle=none;html=1;exitX=0.933;exitY=0.293;exitDx=0;exitDy=0;entryX=0.347;entryY=0.988;entryDx=0;entryDy=0;fontFamily=Helvetica;fontSize=16;endArrow=classic;endFill=1;endSize=4;strokeWidth=1;exitPerimeter=0;entryPerimeter=0;strokeColor=#FF3333;sketch=1;shadow=0;" edge="1" parent="1" source="325" target="319">
                    <mxGeometry relative="1" as="geometry"/>
                </mxCell>
                <mxCell id="324" value="4" style="edgeLabel;html=1;align=center;verticalAlign=middle;resizable=0;points=[];fontSize=12;fontFamily=Helvetica;" vertex="1" connectable="0" parent="323">
                    <mxGeometry x="-0.391" y="1" relative="1" as="geometry">
                        <mxPoint x="5" y="-2" as="offset"/>
                    </mxGeometry>
                </mxCell>
                <mxCell id="325" value="" style="ellipse;whiteSpace=wrap;html=1;aspect=fixed;fontSize=16;fontFamily=Helvetica;" vertex="1" parent="1">
                    <mxGeometry x="565" y="500" width="20" height="20" as="geometry"/>
                </mxCell>
                <mxCell id="326" style="edgeStyle=none;html=1;exitX=0;exitY=0;exitDx=0;exitDy=0;entryX=1;entryY=1;entryDx=0;entryDy=0;fontFamily=Helvetica;fontSize=16;endArrow=classic;endFill=1;endSize=4;strokeWidth=1;" edge="1" parent="1" source="332" target="322">
                    <mxGeometry relative="1" as="geometry"/>
                </mxCell>
                <mxCell id="327" value="5" style="edgeLabel;html=1;align=center;verticalAlign=middle;resizable=0;points=[];fontSize=12;fontFamily=Helvetica;" vertex="1" connectable="0" parent="326">
                    <mxGeometry x="-0.3574" y="1" relative="1" as="geometry">
                        <mxPoint x="-4" y="-5" as="offset"/>
                    </mxGeometry>
                </mxCell>
                <mxCell id="328" style="edgeStyle=none;html=1;exitX=0.951;exitY=0.289;exitDx=0;exitDy=0;entryX=0.009;entryY=0.435;entryDx=0;entryDy=0;fontFamily=Helvetica;fontSize=16;endArrow=classic;endFill=1;endSize=4;strokeWidth=1;exitPerimeter=0;entryPerimeter=0;" edge="1" parent="1" source="332" target="309">
                    <mxGeometry relative="1" as="geometry"/>
                </mxCell>
                <mxCell id="329" value="4" style="edgeLabel;html=1;align=center;verticalAlign=middle;resizable=0;points=[];fontSize=12;fontFamily=Helvetica;" vertex="1" connectable="0" parent="328">
                    <mxGeometry x="-0.2747" relative="1" as="geometry">
                        <mxPoint x="15" y="-3" as="offset"/>
                    </mxGeometry>
                </mxCell>
                <mxCell id="330" style="edgeStyle=none;html=1;exitX=1;exitY=0;exitDx=0;exitDy=0;entryX=0.5;entryY=1;entryDx=0;entryDy=0;fontFamily=Helvetica;fontSize=16;endArrow=classic;endFill=1;endSize=4;strokeWidth=1;" edge="1" parent="1" source="332" target="335">
                    <mxGeometry relative="1" as="geometry"/>
                </mxCell>
                <mxCell id="331" value="4" style="edgeLabel;html=1;align=center;verticalAlign=middle;resizable=0;points=[];fontSize=12;fontFamily=Helvetica;" vertex="1" connectable="0" parent="330">
                    <mxGeometry x="-0.2646" relative="1" as="geometry">
                        <mxPoint y="-3" as="offset"/>
                    </mxGeometry>
                </mxCell>
                <mxCell id="332" value="" style="ellipse;whiteSpace=wrap;html=1;aspect=fixed;fontSize=16;fontFamily=Helvetica;" vertex="1" parent="1">
                    <mxGeometry x="705" y="480" width="20" height="20" as="geometry"/>
                </mxCell>
                <mxCell id="333" style="edgeStyle=none;html=1;exitX=1;exitY=1;exitDx=0;exitDy=0;entryX=0;entryY=0;entryDx=0;entryDy=0;fontFamily=Helvetica;fontSize=16;endArrow=classic;endFill=1;endSize=4;strokeWidth=1;strokeColor=#FF3333;sketch=1;shadow=0;" edge="1" parent="1" source="335" target="309">
                    <mxGeometry relative="1" as="geometry"/>
                </mxCell>
                <mxCell id="334" value="2" style="edgeLabel;html=1;align=center;verticalAlign=middle;resizable=0;points=[];fontSize=12;fontFamily=Helvetica;" vertex="1" connectable="0" parent="333">
                    <mxGeometry x="-0.5418" relative="1" as="geometry">
                        <mxPoint x="14" y="7" as="offset"/>
                    </mxGeometry>
                </mxCell>
                <mxCell id="335" value="" style="ellipse;whiteSpace=wrap;html=1;aspect=fixed;fontSize=16;fontFamily=Helvetica;" vertex="1" parent="1">
                    <mxGeometry x="725" y="430" width="20" height="20" as="geometry"/>
                </mxCell>
                <mxCell id="339" style="edgeStyle=none;html=1;exitX=1;exitY=1;exitDx=0;exitDy=0;entryX=0;entryY=0;entryDx=0;entryDy=0;fontFamily=Helvetica;fontSize=16;endArrow=none;endFill=0;endSize=4;strokeWidth=1;startArrow=classic;startFill=1;" edge="1" parent="1" source="308" target="325">
                    <mxGeometry relative="1" as="geometry">
                        <mxPoint x="535" y="500" as="sourcePoint"/>
                        <mxPoint x="577.9289321881345" y="527.0710678118658" as="targetPoint"/>
                    </mxGeometry>
                </mxCell>
                <mxCell id="340" value="5" style="edgeLabel;html=1;align=center;verticalAlign=middle;resizable=0;points=[];fontSize=12;fontFamily=Helvetica;" vertex="1" connectable="0" parent="339">
                    <mxGeometry x="-0.6008" relative="1" as="geometry">
                        <mxPoint x="12" y="7" as="offset"/>
                    </mxGeometry>
                </mxCell>
                <mxCell id="342" style="edgeStyle=none;html=1;exitX=1;exitY=1;exitDx=0;exitDy=0;entryX=1;entryY=1;entryDx=0;entryDy=0;fontFamily=Helvetica;fontSize=16;endArrow=classic;endFill=1;endSize=4;strokeWidth=1;" edge="1" parent="1" source="319" target="325">
                    <mxGeometry relative="1" as="geometry">
                        <mxPoint x="535" y="500" as="sourcePoint"/>
                        <mxPoint x="577.9289321881345" y="527.0710678118655" as="targetPoint"/>
                    </mxGeometry>
                </mxCell>
                <mxCell id="343" value="5" style="edgeLabel;html=1;align=center;verticalAlign=middle;resizable=0;points=[];fontSize=12;fontFamily=Helvetica;" vertex="1" connectable="0" parent="342">
                    <mxGeometry x="-0.6008" relative="1" as="geometry">
                        <mxPoint x="-16" y="4" as="offset"/>
                    </mxGeometry>
                </mxCell>
                <mxCell id="345" style="edgeStyle=none;html=1;exitX=0.523;exitY=1.069;exitDx=0;exitDy=0;entryX=0;entryY=1;entryDx=0;entryDy=0;fontFamily=Helvetica;fontSize=16;endArrow=classic;endFill=1;endSize=4;strokeWidth=1;exitPerimeter=0;" edge="1" parent="1" source="312" target="319">
                    <mxGeometry relative="1" as="geometry">
                        <mxPoint x="593.6600000000001" y="515.8599999999999" as="sourcePoint"/>
                        <mxPoint x="635.24" y="506.9399999999998" as="targetPoint"/>
                    </mxGeometry>
                </mxCell>
                <mxCell id="346" value="1" style="edgeLabel;html=1;align=center;verticalAlign=middle;resizable=0;points=[];fontSize=12;fontFamily=Helvetica;" vertex="1" connectable="0" parent="345">
                    <mxGeometry x="-0.391" y="1" relative="1" as="geometry">
                        <mxPoint x="8" y="14" as="offset"/>
                    </mxGeometry>
                </mxCell>
                <mxCell id="347" value="Exemplo de um caminho aumentante no Grafo Residual dos exemplos. Podemos aumentar o fluxo em \(2\)." style="text;html=1;strokeColor=none;fillColor=none;align=center;verticalAlign=middle;whiteSpace=wrap;rounded=0;sketch=1;fontFamily=Josefin Sans;fontSource=https%3A%2F%2Ffonts.googleapis.com%2Fcss%3Ffamily%3DJosefin%2BSans;fontSize=11;fontColor=#CCCCCC;labelBorderColor=none;" vertex="1" parent="1">
                    <mxGeometry x="520" y="530" width="280" height="30" as="geometry"/>
                </mxCell>
                <mxCell id="349" style="edgeStyle=none;html=1;exitX=0.037;exitY=0.72;exitDx=0;exitDy=0;entryX=0.977;entryY=0.68;entryDx=0;entryDy=0;fontFamily=Helvetica;fontSize=16;endArrow=classic;endFill=1;endSize=4;strokeWidth=1;entryPerimeter=0;exitPerimeter=0;" edge="1" parent="1" source="322" target="312">
                    <mxGeometry relative="1" as="geometry">
                        <mxPoint x="652.0710678118655" y="502.92893218813447" as="sourcePoint"/>
                        <mxPoint x="667.9289321881345" y="467.07106781186553" as="targetPoint"/>
                    </mxGeometry>
                </mxCell>
                <mxCell id="350" value="4" style="edgeLabel;html=1;align=center;verticalAlign=middle;resizable=0;points=[];fontSize=12;fontFamily=Helvetica;" vertex="1" connectable="0" parent="349">
                    <mxGeometry x="-0.3861" y="1" relative="1" as="geometry">
                        <mxPoint x="-11" y="-2" as="offset"/>
                    </mxGeometry>
                </mxCell>
                <mxCell id="351" style="edgeStyle=none;html=1;exitX=0.065;exitY=0.707;exitDx=0;exitDy=0;entryX=1;entryY=1;entryDx=0;entryDy=0;fontFamily=Helvetica;fontSize=16;endArrow=classic;endFill=1;endSize=4;strokeWidth=1;exitPerimeter=0;" edge="1" parent="1" source="309" target="332">
                    <mxGeometry relative="1" as="geometry">
                        <mxPoint x="734.02" y="495.78" as="sourcePoint"/>
                        <mxPoint x="785.3599999999999" y="487.4000000000001" as="targetPoint"/>
                    </mxGeometry>
                </mxCell>
                <mxCell id="352" value="4" style="edgeLabel;html=1;align=center;verticalAlign=middle;resizable=0;points=[];fontSize=12;fontFamily=Helvetica;" vertex="1" connectable="0" parent="351">
                    <mxGeometry x="-0.2747" relative="1" as="geometry">
                        <mxPoint x="-18" y="3" as="offset"/>
                    </mxGeometry>
                </mxCell>
                <mxCell id="353" style="edgeStyle=none;html=1;exitX=0.365;exitY=0.023;exitDx=0;exitDy=0;entryX=0.97;entryY=0.319;entryDx=0;entryDy=0;fontFamily=Helvetica;fontSize=16;endArrow=classic;endFill=1;endSize=4;strokeWidth=1;exitPerimeter=0;entryPerimeter=0;" edge="1" parent="1" source="309" target="335">
                    <mxGeometry relative="1" as="geometry">
                        <mxPoint x="752.0710678118653" y="457.0710678118651" as="sourcePoint"/>
                        <mxPoint x="790.7754050569738" y="475.940807323753" as="targetPoint"/>
                    </mxGeometry>
                </mxCell>
                <mxCell id="354" value="4" style="edgeLabel;html=1;align=center;verticalAlign=middle;resizable=0;points=[];fontSize=12;fontFamily=Helvetica;" vertex="1" connectable="0" parent="353">
                    <mxGeometry x="-0.5418" relative="1" as="geometry">
                        <mxPoint x="-21" y="-13" as="offset"/>
                    </mxGeometry>
                </mxCell>
                <mxCell id="355" style="edgeStyle=none;html=1;exitX=0.031;exitY=0.754;exitDx=0;exitDy=0;entryX=1.023;entryY=0.642;entryDx=0;entryDy=0;fontFamily=Helvetica;fontSize=16;endArrow=classic;endFill=1;endSize=4;strokeWidth=1;entryPerimeter=0;exitPerimeter=0;" edge="1" parent="1" source="335" target="322">
                    <mxGeometry relative="1" as="geometry">
                        <mxPoint x="682.0710678118478" y="452.9289321881522" as="sourcePoint"/>
                        <mxPoint x="737.9289321881347" y="442.92893218813447" as="targetPoint"/>
                    </mxGeometry>
                </mxCell>
                <mxCell id="356" value="4" style="edgeLabel;html=1;align=center;verticalAlign=middle;resizable=0;points=[];fontSize=12;fontFamily=Helvetica;" vertex="1" connectable="0" parent="355">
                    <mxGeometry x="0.3227" y="-1" relative="1" as="geometry">
                        <mxPoint x="-1" y="1" as="offset"/>
                    </mxGeometry>
                </mxCell>
            </root>
        </mxGraphModel>
    </diagram>
</mxfile>